SplineFontDB: 3.2
FontName: PCB1-Regular
FullName: PCB1-Regular
FamilyName: PCB1
Weight: Regular
Copyright: Copyright (c) 2025, Fujix
UComments: "2025-11-26: Created with FontForge (http://fontforge.org)"
Version: 001.000
ItalicAngle: 0
UnderlinePosition: -140
UnderlineWidth: 70
Ascent: 1200
Descent: 200
InvalidEm: 0
LayerCount: 2
Layer: 0 0 "+gMyXYgAA" 1
Layer: 1 0 "+Uk2XYgAA" 0
XUID: [1021 249 -198832299 1667]
StyleMap: 0x0000
FSType: 0
OS2Version: 0
OS2_WeightWidthSlopeOnly: 0
OS2_UseTypoMetrics: 1
CreationTime: 1764141469
ModificationTime: 1764222564
OS2TypoAscent: 0
OS2TypoAOffset: 1
OS2TypoDescent: 0
OS2TypoDOffset: 1
OS2TypoLinegap: 126
OS2WinAscent: 0
OS2WinAOffset: 1
OS2WinDescent: 0
OS2WinDOffset: 1
HheadAscent: 0
HheadAOffset: 1
HheadDescent: 0
HheadDOffset: 1
OS2Vendor: 'PfEd'
MarkAttachClasses: 1
DEI: 91125
Encoding: UnicodeBmp
UnicodeInterp: none
NameList: AGL For New Fonts
DisplaySize: -36
AntiAlias: 1
FitToEm: 0
WinInfo: 40 40 9
BeginPrivate: 0
EndPrivate
BeginChars: 65536 55

StartChar: A
Encoding: 65 65 0
Width: 1034
Flags: HMW
LayerCount: 2
Fore
SplineSet
917.599609375 98.7001953125 m 2
 933 59.7001953125 913.799804688 15.599609375 874.799804688 0.2001953125 c 0
 865.700195312 -3.400390625 856.299804688 -5.099609375 847 -5.099609375 c 0
 816.700195312 -5.099609375 788.099609375 13.099609375 776.299804688 43 c 2
 718.400390625 189.799804688 l 1
 286.5 189.799804688 l 1
 225.599609375 46.400390625 l 2
 209.200195312 7.7998046875 164.599609375 -10.2001953125 126 6.2001953125 c 0
 87.400390625 22.599609375 69.400390625 67.2001953125 85.7998046875 105.799804688 c 2
 443.299804688 947.200195312 l 2
 455.200195312 975.200195312 482.799804688 993.400390625 513.200195312 993.400390625 c 0
 513.5 993.400390625 513.900390625 993.400390625 514.200195312 993.400390625 c 0
 545.099609375 993 572.599609375 974 583.900390625 945.299804688 c 2
 917.599609375 98.7001953125 l 2
351.099609375 341.700195312 m 1
 658.599609375 341.700195312 l 1
 510.599609375 717.099609375 l 1
 351.099609375 341.700195312 l 1
EndSplineSet
EndChar

StartChar: B
Encoding: 66 66 1
Width: 1012
Flags: HW
LayerCount: 2
Fore
SplineSet
622.900390625 0.2998046875 m 1
 155.900390625 0.2998046875 l 2
 114 0.2998046875 80 34.2998046875 80 76.2001953125 c 2
 80 923.700195312 l 2
 80 965.599609375 114 999.599609375 155.900390625 999.599609375 c 2
 569.099609375 999.599609375 l 2
 742 999.599609375 872.400390625 879.599609375 872.400390625 720.400390625 c 0
 872.400390625 646.599609375 848.700195312 580.099609375 805.400390625 531.400390625 c 1
 879.700195312 481.799804688 932.200195312 402.700195312 932.200195312 296.799804688 c 0
 932.200195312 113.900390625 813.599609375 0.2001953125 622.799804688 0.2001953125 c 1
 622.900390625 0.2998046875 l 1
231.900390625 152.200195312 m 1
 622.900390625 152.200195312 l 2
 730.400390625 152.200195312 780.400390625 198.200195312 780.400390625 296.900390625 c 0
 780.400390625 402.5 670.900390625 440.900390625 597.200195312 440.900390625 c 0
 591.799804688 440.900390625 586.099609375 440.900390625 580.099609375 440.900390625 c 0
 575.299804688 440.900390625 570.5 440.799804688 565.599609375 440.900390625 c 0
 469 440.5 316.200195312 438.799804688 231.799804688 437.799804688 c 1
 231.799804688 152.299804688 l 1
 231.900390625 152.200195312 l 1
231.900390625 847.799804688 m 1
 231.900390625 589.599609375 l 1
 316.799804688 590.599609375 468.5 592.400390625 565.099609375 592.700195312 c 0
 565.5 592.700195312 565.900390625 592.700195312 566.200195312 592.700195312 c 0
 570.5 592.700195312 574.599609375 592.700195312 578.700195312 592.700195312 c 0
 628.5 593.700195312 665.299804688 605.700195312 688.200195312 628.400390625 c 0
 716.400390625 656.299804688 720.599609375 698.099609375 720.599609375 720.5 c 0
 720.599609375 783.799804688 673.799804688 847.799804688 569.200195312 847.799804688 c 2
 231.900390625 847.799804688 l 1
EndSplineSet
EndChar

StartChar: C
Encoding: 67 67 2
Width: 1060
Flags: HW
LayerCount: 2
Fore
SplineSet
555.200195312 3 m 1
 555.200195312 3 l 1
 427.900390625 3 310.099609375 51.099609375 223.599609375 138.400390625 c 0
 129.700195312 233.200195312 78.7001953125 365.599609375 80 511.299804688 c 0
 82.7001953125 805.599609375 337.099609375 1003.40039062 573 1003.40039062 c 0
 833.400390625 1003.40039062 926.900390625 871.299804688 936.700195312 856.200195312 c 0
 959.599609375 821 949.599609375 774 914.5 751.099609375 c 0
 879.900390625 728.5 833.599609375 737.900390625 810.400390625 771.900390625 c 0
 806.299804688 777.400390625 747.200195312 851.5 573 851.5 c 0
 409.799804688 851.5 233.799804688 714.200195312 231.900390625 509.900390625 c 0
 230.900390625 405 266.299804688 311 331.5 245.299804688 c 0
 390.099609375 186.200195312 467.5 154.900390625 555.200195312 154.900390625 c 0
 753.299804688 154.900390625 837.5 275.299804688 841 280.400390625 c 0
 864.400390625 314.799804688 911.5 324.299804688 946.099609375 301.200195312 c 0
 980.700195312 278.099609375 990.599609375 231.799804688 968 196.900390625 c 0
 962.900390625 189 838.700195312 2.900390625 555.299804688 2.900390625 c 1
 555.200195312 3 l 1
EndSplineSet
EndChar

StartChar: D
Encoding: 68 68 3
Width: 1056
Flags: HW
LayerCount: 2
Fore
SplineSet
528.200195312 -0.2001953125 m 1
 155.900390625 -0.2001953125 l 2
 114 -0.2001953125 80 33.7998046875 80 75.7001953125 c 2
 80 924.299804688 l 2
 80 966.200195312 114 1000.20019531 155.900390625 1000.20019531 c 2
 483.099609375 1000.20019531 l 2
 728.599609375 1000.20019531 976.200195312 845.5 976.200195312 500 c 0
 976.200195312 154.5 743.900390625 -0.2001953125 528 -0.2001953125 c 1
 528.200195312 -0.2001953125 l 1
231.900390625 151.700195312 m 1
 528.200195312 151.700195312 l 2
 664.900390625 151.700195312 824.5 242.900390625 824.5 500 c 0
 824.5 757.099609375 648.200195312 848.299804688 483.299804688 848.299804688 c 2
 232 848.299804688 l 1
 232 151.700195312 l 1
 231.900390625 151.700195312 l 1
EndSplineSet
EndChar

StartChar: E
Encoding: 69 69 4
Width: 996
Flags: HW
LayerCount: 2
Fore
SplineSet
842.900390625 151.900390625 m 1
 842.900390625 151.700195312 l 1
 884.799804688 151.700195312 918.799804688 117.700195312 918.799804688 75.7998046875 c 0
 918.799804688 33.900390625 884.799804688 -0.099609375 842.900390625 -0.099609375 c 2
 155.900390625 -0.099609375 l 2
 114 -0.099609375 80 33.900390625 80 75.7998046875 c 2
 80 922.400390625 l 2
 80 964.299804688 114 998.299804688 155.900390625 998.299804688 c 2
 842.900390625 998.299804688 l 2
 884.799804688 998.299804688 918.799804688 964.299804688 918.799804688 922.400390625 c 0
 918.799804688 880.5 884.799804688 846.5 842.900390625 846.5 c 2
 231.900390625 846.5 l 1
 231.900390625 575.099609375 l 1
 650.099609375 575.099609375 l 2
 692 575.099609375 726 541.099609375 726 499.200195312 c 0
 726 457.299804688 692 423.299804688 650.099609375 423.299804688 c 2
 231.900390625 423.299804688 l 1
 231.900390625 151.900390625 l 1
 842.900390625 151.900390625 l 1
EndSplineSet
EndChar

StartChar: F
Encoding: 70 70 5
Width: 1044
Flags: HW
LayerCount: 2
Fore
SplineSet
890.200195312 1000.5 m 2
 932 1000.5 966 966.700195312 966.099609375 924.799804688 c 0
 966.200195312 882.799804688 932.299804688 848.700195312 890.400390625 848.599609375 c 2
 231.900390625 846.5 l 1
 231.900390625 531.700195312 l 1
 641.900390625 531.700195312 l 2
 683.799804688 531.700195312 717.799804688 497.700195312 717.799804688 455.799804688 c 0
 717.799804688 413.900390625 683.799804688 379.900390625 641.900390625 379.900390625 c 2
 231.799804688 379.900390625 l 1
 231.799804688 74.900390625 l 2
 231.799804688 33 197.799804688 -1 155.900390625 -1 c 0
 114 -1 80 33 80 74.900390625 c 2
 80 922.299804688 l 2
 80 964.099609375 113.799804688 998.099609375 155.700195312 998.200195312 c 2
 890 1000.5 l 1
 890.200195312 1000.5 l 2
EndSplineSet
EndChar

StartChar: G
Encoding: 71 71 6
Width: 1113
Flags: HW
LayerCount: 2
Fore
SplineSet
1029.5 488.799804688 m 1
 1029.40039062 488.700195312 l 2
 1029.59960938 484.400390625 1029.79980469 475.099609375 1029.40039062 461.900390625 c 2
 1029.40039062 75.400390625 l 2
 1029.40039062 33.5 995.400390625 -0.5 953.5 -0.5 c 0
 911.599609375 -0.5 877.599609375 33.5 877.599609375 75.400390625 c 2
 877.599609375 108 l 1
 796.400390625 36.5 682.5 0 555.200195312 0 c 0
 427.900390625 0 310.099609375 48.099609375 223.599609375 135.400390625 c 0
 129.700195312 230.200195312 78.7001953125 362.700195312 80 508.400390625 c 0
 82.7001953125 802.799804688 334.599609375 1000.5 572.900390625 1000.5 c 0
 811.200195312 1000.5 926.400390625 866.400390625 931.200195312 860.700195312 c 0
 958.099609375 828.599609375 953.900390625 780.700195312 921.799804688 753.700195312 c 0
 889.900390625 726.900390625 842.400390625 730.900390625 815.400390625 762.400390625 c 0
 811.099609375 767.299804688 736.299804688 848.599609375 573 848.599609375 c 0
 409.700195312 848.599609375 233.799804688 711.299804688 231.900390625 507 c 0
 231 402.099609375 266.299804688 308.099609375 331.5 242.299804688 c 0
 390.099609375 183.200195312 467.5 151.900390625 555.200195312 151.900390625 c 0
 659.5 151.900390625 739.700195312 180.599609375 793.400390625 237.099609375 c 0
 845.299804688 291.700195312 865.400390625 363.599609375 873.099609375 415.5 c 1
 625.900390625 415.5 l 2
 584 415.5 550 449.5 550 491.400390625 c 0
 550 533.299804688 583.900390625 567.299804688 625.900390625 567.299804688 c 2
 953.599609375 567.299804688 l 2
 995.5 567.299804688 1029.5 533.299804688 1029.5 491.400390625 c 2
 1029.5 488.799804688 l 1
EndSplineSet
EndChar

StartChar: H
Encoding: 72 72 7
Width: 1008
Flags: HW
LayerCount: 2
Fore
SplineSet
850.200195312 1013.5 m 1
 850.099609375 1013.40039062 l 1
 892 1013.40039062 926 979.400390625 926 937.5 c 2
 926 91.099609375 l 2
 926 49.2001953125 892 15.2001953125 850.099609375 15.2001953125 c 0
 808.200195312 15.2001953125 774.200195312 49.2001953125 774.200195312 91.099609375 c 2
 774.200195312 427.799804688 l 1
 231.900390625 427.799804688 l 1
 231.900390625 103.200195312 l 2
 231.900390625 61.2998046875 197.900390625 27.2998046875 156 27.2998046875 c 0
 114.099609375 27.2998046875 80.099609375 61.2998046875 80.099609375 103.200195312 c 2
 80.099609375 914.900390625 l 2
 80.099609375 956.799804688 114.099609375 990.799804688 156 990.799804688 c 0
 197.900390625 990.799804688 231.900390625 956.799804688 231.900390625 914.900390625 c 2
 231.900390625 579.799804688 l 1
 774.299804688 579.799804688 l 1
 774.299804688 937.599609375 l 2
 774.299804688 979.5 808.200195312 1013.5 850.200195312 1013.5 c 1
EndSplineSet
EndChar

StartChar: I
Encoding: 73 73 8
Width: 472
Flags: HW
LayerCount: 2
Fore
SplineSet
235.400390625 2.900390625 m 1
 193.400390625 2.900390625 159.5 36.900390625 159.5 78.7998046875 c 2
 159.5 927.599609375 l 2
 159.5 969.5 193.5 1003.5 235.400390625 1003.5 c 0
 277.299804688 1003.5 311.299804688 969.5 311.299804688 927.599609375 c 2
 311.299804688 78.900390625 l 2
 311.299804688 37 277.299804688 3 235.400390625 3 c 1
 235.400390625 2.900390625 l 1
EndSplineSet
EndChar

StartChar: J
Encoding: 74 74 9
Width: 1068
Flags: HW
LayerCount: 2
Fore
SplineSet
530 4.2998046875 m 1
 201.599609375 4.2998046875 90.5 260.099609375 85.900390625 271 c 0
 69.7001953125 309.700195312 87.900390625 354.200195312 126.5 370.400390625 c 0
 165.200195312 386.599609375 209.700195312 368.5 225.900390625 329.799804688 c 0
 228.799804688 323.299804688 304.900390625 156.200195312 529.900390625 156.200195312 c 0
 812.5 156.200195312 815.700195312 428.900390625 815.700195312 440.5 c 2
 815.700195312 930 l 2
 815.700195312 971.900390625 849.700195312 1005.90039062 891.599609375 1005.90039062 c 0
 933.5 1005.90039062 967.5 971.900390625 967.5 930 c 2
 967.5 440.5 l 2
 967.5 265.200195312 850.900390625 4.2998046875 529.799804688 4.2998046875 c 1
 530 4.2998046875 l 1
EndSplineSet
EndChar

StartChar: K
Encoding: 75 75 10
Width: 968
Flags: HW
LayerCount: 2
Fore
SplineSet
869.799804688 125.400390625 m 1
 869.799804688 125.299804688 l 2
 896.700195312 93.099609375 892.5 45.2001953125 860.299804688 18.2998046875 c 0
 846.099609375 6.400390625 828.799804688 0.599609375 811.599609375 0.599609375 c 0
 789.900390625 0.599609375 768.299804688 9.900390625 753.299804688 27.7998046875 c 2
 381.700195312 472 l 1
 231.900390625 346.400390625 l 1
 231.900390625 76.599609375 l 2
 231.900390625 34.7001953125 197.900390625 0.7001953125 156 0.7001953125 c 0
 114.099609375 0.7001953125 80.099609375 34.7001953125 80.099609375 76.599609375 c 2
 80.099609375 923.299804688 l 2
 80.099609375 965.200195312 114.099609375 999.200195312 156 999.200195312 c 0
 197.900390625 999.200195312 231.900390625 965.200195312 231.900390625 923.299804688 c 2
 231.900390625 544.700195312 l 1
 342.400390625 637.400390625 l 1
 342.400390625 637.400390625 l 1
 342.400390625 637.400390625 l 1
 752.900390625 981.599609375 l 2
 785.099609375 1008.59960938 833 1004.29980469 859.900390625 972.200195312 c 0
 886.799804688 940 882.599609375 892.099609375 850.5 865.200195312 c 2
 498.099609375 569.700195312 l 1
 869.799804688 125.400390625 l 1
EndSplineSet
EndChar

StartChar: L
Encoding: 76 76 11
Width: 1036
Flags: HW
LayerCount: 2
Fore
SplineSet
879.5 3.7001953125 m 2
 155.900390625 3.7001953125 l 2
 113.900390625 3.7001953125 80 37.7001953125 80 79.599609375 c 2
 80 926.799804688 l 2
 80 968.700195312 114 1002.70019531 155.900390625 1002.70019531 c 0
 197.799804688 1002.70019531 231.799804688 968.700195312 231.799804688 926.799804688 c 2
 231.799804688 155.5 l 1
 879.5 155.5 l 2
 921.5 155.5 955.400390625 121.5 955.400390625 79.599609375 c 0
 955.400390625 37.7001953125 921.400390625 3.7001953125 879.5 3.7001953125 c 2
EndSplineSet
EndChar

StartChar: M
Encoding: 77 77 12
Width: 1310
Flags: HW
LayerCount: 2
Fore
SplineSet
1153 -0.099609375 m 1
 1111 -0.099609375 1077.09960938 33.900390625 1077.09960938 75.7998046875 c 2
 1077.09960938 666.799804688 l 1
 712.799804688 103.400390625 l 2
 698.799804688 81.7998046875 674.799804688 68.7001953125 649 68.7001953125 c 1
 649 68.7001953125 l 1
 623.200195312 68.7001953125 599.200195312 81.900390625 585.200195312 103.5 c 2
 231.900390625 652.400390625 l 1
 231.900390625 75.7998046875 l 2
 231.900390625 33.900390625 197.900390625 -0.099609375 156 -0.099609375 c 0
 114.099609375 -0.099609375 80.099609375 33.900390625 80.099609375 75.7998046875 c 2
 80.099609375 910.799804688 l 2
 80.099609375 944.5 102.299804688 974.200195312 134.599609375 983.700195312 c 0
 166.900390625 993.200195312 201.700195312 980.299804688 219.900390625 951.900390625 c 2
 649.200195312 284.799804688 l 1
 1089.20019531 965.400390625 l 2
 1107.5 993.599609375 1142.20019531 1006.5 1174.5 997 c 0
 1206.79980469 987.5 1228.90039062 957.799804688 1228.90039062 924.200195312 c 2
 1228.90039062 75.900390625 l 2
 1228.90039062 34 1194.90039062 0 1153 0 c 1
 1153 -0.099609375 l 1
EndSplineSet
EndChar

StartChar: N
Encoding: 78 78 13
Width: 966
Flags: HW
LayerCount: 2
Fore
SplineSet
156.200195312 -0.099609375 m 0
 152.099609375 -0.099609375 147.900390625 0.2001953125 143.799804688 0.900390625 c 0
 104.900390625 7.2998046875 77.7998046875 42.099609375 80.2998046875 80.599609375 c 0
 81.2001953125 116 80.7001953125 602.5 80.2001953125 923.900390625 c 0
 80.2001953125 956.099609375 100.400390625 984.900390625 130.799804688 995.599609375 c 0
 161.200195312 1006.40039062 195 996.799804688 215.200195312 971.700195312 c 2
 732.400390625 331.299804688 l 1
 732.400390625 924.099609375 l 2
 732.400390625 966 766.400390625 1000 808.299804688 1000 c 0
 850.200195312 1000 884.200195312 966 884.200195312 924.099609375 c 2
 884.200195312 116.5 l 2
 884.200195312 84.2998046875 863.900390625 55.599609375 833.599609375 44.900390625 c 0
 803.200195312 34.2001953125 769.400390625 43.7998046875 749.200195312 68.7998046875 c 2
 232.400390625 708.799804688 l 1
 233.299804688 77.2001953125 232.299804688 71.099609375 231 63.5 c 0
 224.900390625 26.2998046875 192.700195312 -0.099609375 156.200195312 -0.099609375 c 0
EndSplineSet
EndChar

StartChar: O
Encoding: 79 79 14
Width: 1080
Flags: HW
LayerCount: 2
Fore
SplineSet
514.200195312 0 m 1
 510.5 0 506.799804688 0 503.099609375 0.099609375 c 0
 238.299804688 5.400390625 80 245 80 473.599609375 c 0
 80 787.400390625 260.5 990.200195312 539.700195312 990.200195312 c 0
 818.900390625 990.200195312 999.900390625 793.5 999.900390625 500.799804688 c 0
 999.900390625 355.900390625 948.299804688 225.599609375 854.599609375 133.700195312 c 0
 766.400390625 47.2998046875 645.900390625 0 514.099609375 0 c 1
 514.200195312 0 l 1
539.700195312 838.299804688 m 0
 254 838.299804688 231.799804688 559.200195312 231.799804688 473.599609375 c 0
 231.799804688 318.200195312 334.400390625 155.400390625 506 152 c 0
 603 150.099609375 686 181.299804688 748.200195312 242.200195312 c 0
 812.5 305.299804688 848 397.099609375 848 500.799804688 c 0
 848 709 729.900390625 838.299804688 539.700195312 838.299804688 c 0
EndSplineSet
EndChar

StartChar: P
Encoding: 80 80 15
Width: 1018
Flags: HW
LayerCount: 2
Fore
SplineSet
155.900390625 -0.099609375 m 0
 113.900390625 -0.099609375 80 33.900390625 80 75.7998046875 c 2
 80 924.099609375 l 2
 80 966 114 1000 155.900390625 1000 c 2
 631.599609375 1000 l 2
 812.599609375 1000 938.700195312 831.599609375 938.700195312 680.599609375 c 0
 938.700195312 520.5 837.900390625 359 612.799804688 359 c 0
 478.599609375 359 314.299804688 361.200195312 231.799804688 362.5 c 1
 231.799804688 75.7998046875 l 2
 231.799804688 33.900390625 197.799804688 -0.099609375 155.900390625 -0.099609375 c 0
231.900390625 514.400390625 m 1
 313.099609375 513.200195312 478.400390625 510.900390625 612.900390625 510.900390625 c 0
 764.299804688 510.900390625 786.900390625 617.200195312 786.900390625 680.599609375 c 0
 786.900390625 759.700195312 720.5 848.200195312 631.599609375 848.200195312 c 2
 231.900390625 848.200195312 l 1
 231.900390625 514.400390625 l 1
EndSplineSet
EndChar

StartChar: Q
Encoding: 81 81 16
Width: 1108
Flags: HW
LayerCount: 2
Fore
SplineSet
999.400390625 135.799804688 m 2
 1032.5 110 1038.40039062 62.2998046875 1012.59960938 29.2001953125 c 0
 997.599609375 10 975.200195312 -0 952.599609375 -0 c 0
 936.299804688 -0 919.900390625 5.2998046875 906 16.099609375 c 2
 806.700195312 93.5 l 1
 724.900390625 33 623.599609375 -0 514.200195312 -0 c 0
 510.5 -0 506.799804688 0.099609375 503.099609375 0.099609375 c 0
 238.200195312 5.400390625 80 245 80 473.599609375 c 0
 80 787.400390625 264.400390625 990.099609375 539.700195312 990.099609375 c 0
 815 990.099609375 999.900390625 793.5 999.900390625 500.700195312 c 0
 999.900390625 389.400390625 969.099609375 286.799804688 912.5 203.5 c 1
 999.400390625 135.799804688 l 2
506.099609375 152 m 1
 506.099609375 152.099609375 l 1
 571.400390625 150.799804688 629.900390625 164.700195312 680.200195312 192.200195312 c 1
 493.299804688 337.900390625 l 2
 460.200195312 363.700195312 454.299804688 411.400390625 480.099609375 444.5 c 0
 505.900390625 477.599609375 553.599609375 483.5 586.700195312 457.700195312 c 2
 792.5 297.200195312 l 1
 828.599609375 354.099609375 848.099609375 424.099609375 848.099609375 500.799804688 c 0
 848.099609375 709 730 838.299804688 539.799804688 838.299804688 c 0
 254.099609375 838.299804688 231.900390625 559.200195312 231.900390625 473.599609375 c 0
 231.900390625 318.200195312 334.5 155.400390625 506.099609375 152 c 1
EndSplineSet
EndChar

StartChar: R
Encoding: 82 82 17
Width: 1012
Flags: HW
LayerCount: 2
Fore
SplineSet
912.299804688 144.299804688 m 2
 938 111.099609375 932 63.400390625 898.799804688 37.7001953125 c 0
 885 27 868.599609375 21.7998046875 852.299804688 21.7998046875 c 0
 829.599609375 21.7998046875 807.200195312 31.900390625 792.200195312 51.2001953125 c 2
 505.5 420.900390625 l 1
 401.299804688 421.599609375 295.599609375 423.299804688 231.799804688 424.5 c 1
 231.799804688 75.900390625 l 2
 231.799804688 34 197.799804688 0 155.900390625 0 c 0
 114 0 80 34 80 75.900390625 c 2
 80 917.299804688 l 2
 80 937.5 88 956.799804688 102.299804688 971.099609375 c 0
 116.5 985.299804688 135.799804688 993.200195312 155.900390625 993.200195312 c 2
 156.200195312 993.200195312 l 1
 156.200195312 993.200195312 485.599609375 991.799804688 617.400390625 991.799804688 c 0
 789.700195312 991.799804688 892.599609375 850.400390625 892.599609375 713.700195312 c 0
 892.599609375 595.799804688 836.700195312 471.5 688.400390625 433 c 1
 912.299804688 144.299804688 l 2
231.900390625 841.099609375 m 0
 231.900390625 576.5 l 1
 311.400390625 575 459.900390625 572.599609375 587.400390625 572.599609375 c 0
 653.299804688 572.599609375 740.799804688 587.200195312 740.799804688 713.799804688 c 0
 740.799804688 764.5 709.5 840 617.5 840 c 0
 525.5 840 337.5 840.700195312 231.900390625 841.099609375 c 0
EndSplineSet
EndChar

StartChar: S
Encoding: 83 83 18
Width: 934
Flags: HW
LayerCount: 2
Fore
SplineSet
465.700195312 3.7998046875 m 1
 241.400390625 3.7998046875 108.700195312 129.299804688 103.200195312 134.599609375 c 0
 73 163.700195312 72.099609375 211.799804688 101.299804688 242 c 0
 130.5 272.200195312 178.5 273 208.700195312 243.900390625 c 0
 212.099609375 240.700195312 305.099609375 155.599609375 465.799804688 155.599609375 c 1
 465.799804688 155.599609375 l 1
 580.200195312 155.599609375 701.799804688 197.599609375 701.799804688 275.400390625 c 0
 701.799804688 343.799804688 689.400390625 388.299804688 444.700195312 439.400390625 c 0
 210.799804688 488.299804688 92.2001953125 587.299804688 92.2001953125 733.799804688 c 0
 92.2001953125 857.700195312 185.700195312 1002.5 449.099609375 1002.5 c 1
 449.099609375 1002.5 l 1
 641.5 1002.5 756.900390625 919.299804688 761.799804688 915.700195312 c 0
 795.599609375 890.900390625 802.900390625 843.299804688 778 809.5 c 0
 753.299804688 775.900390625 706 768.5 672.299804688 792.900390625 c 0
 669.700195312 794.700195312 587.400390625 850.599609375 449.099609375 850.599609375 c 1
 449.099609375 850.599609375 l 1
 387.5 850.599609375 244.099609375 839.200195312 244.099609375 733.799804688 c 0
 244.099609375 653.299804688 370.099609375 610.099609375 475.799804688 588 c 0
 675 546.400390625 853.700195312 491.200195312 853.700195312 275.299804688 c 0
 853.700195312 115.400390625 694.200195312 3.599609375 465.799804688 3.599609375 c 1
 465.799804688 3.599609375 l 1
 465.700195312 3.7998046875 l 1
EndSplineSet
EndChar

StartChar: T
Encoding: 84 84 19
Width: 1050
Flags: HW
LayerCount: 2
Fore
SplineSet
890.099609375 982.599609375 m 1
 889.900390625 982.5 l 1
 931.799804688 982.5 965.799804688 948.5 965.799804688 906.599609375 c 0
 965.799804688 864.700195312 931.900390625 830.700195312 889.900390625 830.700195312 c 2
 598.799804688 830.700195312 l 1
 598.799804688 76 l 2
 598.799804688 34.099609375 564.799804688 0.099609375 522.900390625 0.099609375 c 0
 481 0.099609375 447 34.099609375 447 76 c 2
 447 830.799804688 l 1
 155.900390625 830.799804688 l 2
 114 830.799804688 80 864.799804688 80 906.700195312 c 0
 80 948.599609375 113.900390625 982.599609375 155.900390625 982.599609375 c 2
 890.099609375 982.599609375 l 1
EndSplineSet
EndChar

StartChar: U
Encoding: 85 85 20
Width: 980
Flags: HW
LayerCount: 2
Fore
SplineSet
490.099609375 7.2001953125 m 1
 187.700195312 7.2001953125 80 232.5 80 443.400390625 c 2
 80 929.799804688 l 2
 80 971.700195312 114 1005.70019531 155.900390625 1005.70019531 c 0
 197.799804688 1005.70019531 231.799804688 971.700195312 231.799804688 929.799804688 c 2
 231.799804688 443.400390625 l 2
 231.799804688 313.700195312 276.599609375 159.099609375 490 159.099609375 c 0
 714.700195312 159.099609375 748.200195312 320.900390625 748.200195312 417.299804688 c 2
 748.200195312 929.799804688 l 2
 748.200195312 971.700195312 782.200195312 1005.70019531 824.099609375 1005.70019531 c 0
 866 1005.70019531 900 971.700195312 900 929.799804688 c 2
 900 417.299804688 l 2
 900 228.099609375 792.599609375 7.2001953125 489.900390625 7.2001953125 c 1
 490.099609375 7.2001953125 l 1
EndSplineSet
EndChar

StartChar: V
Encoding: 86 86 21
Width: 1004
Flags: HW
LayerCount: 2
Fore
SplineSet
489.599609375 0.7001953125 m 1
 489.599609375 0.7001953125 488.900390625 0.7001953125 488.599609375 0.7001953125 c 0
 457.799804688 1.099609375 430.299804688 20.099609375 419 48.7998046875 c 2
 85.2998046875 895.5 l 2
 69.900390625 934.5 89.099609375 978.599609375 128.099609375 994 c 0
 167 1009.40039062 211.200195312 990.200195312 226.599609375 951.200195312 c 2
 492.299804688 277.099609375 l 1
 777.299804688 947.799804688 l 2
 793.700195312 986.400390625 838.200195312 1004.40039062 876.900390625 988 c 0
 915.5 971.599609375 933.5 927 917.099609375 888.400390625 c 2
 559.5 47 l 2
 547.599609375 18.900390625 520 0.7998046875 489.599609375 0.7998046875 c 1
 489.599609375 0.7001953125 l 1
EndSplineSet
EndChar

StartChar: W
Encoding: 87 87 22
Width: 1328
Flags: HW
LayerCount: 2
Fore
SplineSet
414 0 m 2
 380.599609375 0 351.099609375 21.7998046875 341.400390625 53.7998046875 c 2
 83.2998046875 899.299804688 l 2
 71.099609375 939.400390625 93.599609375 981.900390625 133.799804688 994.099609375 c 0
 173.900390625 1006.40039062 216.299804688 983.799804688 228.599609375 943.599609375 c 2
 414 336.200195312 l 1
 599.5 944.700195312 l 2
 609.299804688 976.700195312 638.799804688 998.5 672.200195312 998.5 c 2
 672.5 998.5 l 2
 706 998.400390625 735.5 976.299804688 745 944.099609375 c 2
 922.5 343.799804688 l 1
 1100 944.099609375 l 2
 1111.90039062 984.299804688 1154 1007.29980469 1194.40039062 995.400390625 c 0
 1234.59960938 983.5 1257.59960938 941.299804688 1245.70019531 901 c 2
 995.400390625 54.400390625 l 2
 985.900390625 22.099609375 956.200195312 0 922.599609375 0 c 0
 889 0 859.299804688 22.099609375 849.799804688 54.400390625 c 2
 671.200195312 658.5 l 1
 486.900390625 53.7998046875 l 2
 477.099609375 21.7998046875 447.700195312 0 414.299804688 0 c 1
 414.299804688 0 l 1
 414 0 l 2
EndSplineSet
EndChar

StartChar: X
Encoding: 88 88 23
Width: 976
Flags: HW
LayerCount: 2
Fore
SplineSet
873.599609375 113 m 1
 873.5 113.099609375 l 1
 899 80.099609375 892.900390625 32.599609375 859.900390625 7.099609375 c 0
 846.099609375 -3.599609375 829.799804688 -8.7001953125 813.700195312 -8.7001953125 c 0
 791.099609375 -8.7001953125 768.700195312 1.400390625 753.799804688 20.7001953125 c 2
 482.5 371.900390625 l 1
 215.099609375 29.5 l 2
 200.200195312 10.400390625 178 0.400390625 155.5 0.400390625 c 0
 139.200195312 0.400390625 122.799804688 5.599609375 109 16.400390625 c 0
 76.099609375 42.099609375 70.2998046875 89.599609375 96 122.5 c 2
 387.200195312 495.299804688 l 1
 95.7998046875 872.400390625 l 2
 70.2998046875 905.400390625 76.400390625 952.900390625 109.400390625 978.400390625 c 0
 142.400390625 1003.90039062 189.799804688 997.799804688 215.400390625 964.799804688 c 2
 483.400390625 618.200195312 l 1
 754.299804688 965.099609375 l 2
 780 998 827.5 1003.79980469 860.400390625 978.099609375 c 0
 893.299804688 952.400390625 899.099609375 904.900390625 873.400390625 872 c 2
 578.700195312 494.700195312 l 1
 873.599609375 113 l 1
EndSplineSet
EndChar

StartChar: Y
Encoding: 89 89 24
Width: 984
Flags: HW
LayerCount: 2
Fore
SplineSet
874.099609375 982.700195312 m 1
 874 982.599609375 l 1
 906.799804688 956.5 912.200195312 908.700195312 886.099609375 875.900390625 c 2
 558.799804688 464.900390625 l 2
 560 459.599609375 560.700195312 454.200195312 560.700195312 448.5 c 2
 560.700195312 76.599609375 l 2
 560.700195312 34.7001953125 526.700195312 0.7001953125 484.799804688 0.7001953125 c 0
 442.900390625 0.7001953125 408.900390625 34.7001953125 408.900390625 76.599609375 c 2
 408.900390625 448.5 l 2
 408.900390625 454.099609375 409.599609375 459.400390625 410.700195312 464.599609375 c 2
 96.5 877.299804688 l 2
 71.099609375 910.599609375 77.5 958.299804688 110.900390625 983.700195312 c 0
 144.200195312 1009.09960938 191.900390625 1002.70019531 217.299804688 969.299804688 c 2
 485.599609375 616.799804688 l 1
 767.400390625 970.599609375 l 2
 793.599609375 1003.40039062 841.299804688 1008.79980469 874.099609375 982.700195312 c 1
EndSplineSet
EndChar

StartChar: Z
Encoding: 90 90 25
Width: 962
Flags: HW
LayerCount: 2
Fore
SplineSet
788.799804688 0 m 1
 155.900390625 0 l 2
 127.099609375 0 100.900390625 16.2001953125 88 41.900390625 c 0
 75.099609375 67.599609375 77.900390625 98.400390625 95.099609375 121.400390625 c 2
 637.200195312 846.599609375 l 1
 155.900390625 846.599609375 l 2
 113.900390625 846.599609375 80 880.599609375 80 922.5 c 0
 80 964.400390625 114 998.400390625 155.900390625 998.400390625 c 2
 788.799804688 998.400390625 l 2
 817.599609375 998.400390625 843.799804688 982.200195312 856.700195312 956.5 c 0
 869.599609375 930.799804688 866.799804688 900 849.599609375 877 c 2
 307.5 151.900390625 l 1
 788.799804688 151.900390625 l 2
 830.799804688 151.900390625 864.700195312 117.900390625 864.700195312 76 c 0
 864.700195312 34.099609375 830.700195312 0.099609375 788.799804688 0.099609375 c 1
 788.799804688 0 l 1
EndSplineSet
EndChar

StartChar: zero
Encoding: 48 48 27
Width: 1016
Flags: HW
LayerCount: 2
Fore
SplineSet
487.799804688 -0.599609375 m 2
 484.099609375 -0.599609375 480.400390625 -0.599609375 476.700195312 -0.5 c 0
 228.400390625 5 80 247.200195312 80 478.200195312 c 0
 80 795.5 249.099609375 1000.59960938 510.900390625 1000.59960938 c 0
 772.700195312 1000.59960938 935.200195312 800 935.200195312 501.299804688 c 0
 935.200195312 346.599609375 883.599609375 210.900390625 790 119.299804688 c 0
 709.700195312 40.7001953125 605.400390625 -0.599609375 487.900390625 -0.599609375 c 2
 487.799804688 -0.599609375 l 2
510.900390625 848.700195312 m 1
 252 848.700195312 231.900390625 565.099609375 231.900390625 478.200195312 c 0
 231.900390625 323.599609375 326.799804688 154.700195312 480 151.400390625 c 0
 561.299804688 149.099609375 630.700195312 176.099609375 683.700195312 227.900390625 c 0
 747.900390625 290.700195312 783.299804688 387.799804688 783.299804688 501.400390625 c 0
 783.299804688 718.900390625 681.5 848.799804688 510.900390625 848.799804688 c 1
 510.900390625 848.700195312 l 1
EndSplineSet
EndChar

StartChar: one
Encoding: 49 49 28
Width: 970
Flags: HW
LayerCount: 2
Fore
SplineSet
487 -0.2998046875 m 0
 445 -0.2998046875 411.099609375 33.7001953125 411.099609375 75.599609375 c 2
 411.099609375 924.299804688 l 2
 411.099609375 966.200195312 445.099609375 1000.20019531 487 1000.20019531 c 0
 528.899414062 1000.20019531 562.899414062 966.200195312 562.899414062 924.299804688 c 2
 562.899414062 75.599609375 l 2
 562.899414062 33.7001953125 528.899414062 -0.2998046875 487 -0.2998046875 c 0
EndSplineSet
EndChar

StartChar: two
Encoding: 50 50 29
Width: 924
Flags: HW
LayerCount: 2
Fore
SplineSet
771.299804688 0 m 1
 156 0 l 2
 135.400390625 0 115.599609375 8.400390625 101.299804688 23.2998046875 c 0
 87 38.2001953125 79.2998046875 58.2001953125 80.099609375 78.900390625 c 0
 80.7998046875 97.7998046875 93.599609375 267.5 313.700195312 418.700195312 c 0
 373.599609375 459.799804688 430.299804688 493 480.299804688 522.200195312 c 0
 623.700195312 606.099609375 674 641.799804688 674.599609375 713.900390625 c 0
 674.799804688 734.200195312 670.5 772.799804688 639.900390625 803.900390625 c 0
 608.200195312 836.099609375 554.299804688 853.299804688 484.200195312 853.599609375 c 2
 482.5 853.599609375 l 2
 313.599609375 853.599609375 213.900390625 731.200195312 209.700195312 725.900390625 c 0
 183.599609375 693.299804688 136 687.599609375 103.200195312 713.5 c 0
 70.400390625 739.400390625 64.5 786.700195312 90.099609375 819.599609375 c 0
 96 827.200195312 237.700195312 1005.5 482.400390625 1005.5 c 2
 484.799804688 1005.5 l 2
 625.5 1004.79980469 705.5 953.5 747.900390625 910.599609375 c 0
 799.200195312 858.599609375 827.099609375 788.299804688 826.400390625 712.599609375 c 0
 825 547.799804688 700.700195312 475.200195312 556.900390625 391.099609375 c 0
 509.099609375 363.200195312 454.900390625 331.5 399.599609375 293.5 c 0
 326.099609375 243 284.700195312 192.200195312 261.400390625 152 c 1
 771.200195312 152 l 2
 813.200195312 152 847.099609375 118 847.099609375 76.099609375 c 0
 847.099609375 34.2001953125 813.099609375 0.2001953125 771.200195312 0.2001953125 c 1
 771.299804688 0 l 1
EndSplineSet
EndChar

StartChar: three
Encoding: 51 51 30
Width: 968
Flags: HW
LayerCount: 2
Fore
SplineSet
452.099609375 0.7001953125 m 1
 217.5 0.7001953125 104.200195312 117.799804688 99.2001953125 123 c 0
 70.400390625 153.5 71.7998046875 201.599609375 102.299804688 230.400390625 c 0
 132.900390625 259.200195312 180.900390625 257.799804688 209.700195312 227.299804688 c 0
 212.400390625 224.599609375 296.700195312 143.200195312 484.400390625 153.5 c 0
 564 158 714.5 201.200195312 714.5 332.900390625 c 0
 714.5 359.400390625 706.5 379.599609375 689.400390625 396.599609375 c 0
 644 441.5 546.799804688 453.799804688 503 455.400390625 c 0
 495.200195312 455.400390625 489.799804688 455.5 487.299804688 455.599609375 c 0
 446.299804688 457.400390625 414.099609375 491.400390625 414.599609375 532.5 c 0
 415.099609375 573.599609375 448.200195312 606.799804688 489.299804688 607.400390625 c 0
 491.900390625 607.400390625 497.099609375 607.400390625 504.5 607.400390625 c 0
 539.5 608.200195312 614.299804688 616.900390625 652 652.799804688 c 0
 668.700195312 668.599609375 676.599609375 688.700195312 677.099609375 716 c 0
 677.400390625 738 668.299804688 773.400390625 641.400390625 800.700195312 c 0
 610.799804688 831.700195312 563.599609375 847.5 500.900390625 847.5 c 0
 330.400390625 847.5 243.799804688 783.299804688 243 782.700195312 c 0
 210 756.799804688 162.299804688 762.599609375 136.400390625 795.599609375 c 0
 110.5 828.599609375 116.299804688 876.299804688 149.299804688 902.200195312 c 0
 162 912.200195312 279.599609375 999.400390625 501 999.400390625 c 0
 631.599609375 999.400390625 708.299804688 949.299804688 749.700195312 907.299804688 c 0
 800.5 855.700195312 830.200195312 783.299804688 829.099609375 713.700195312 c 0
 828 645.400390625 802.799804688 586.099609375 756.099609375 542.099609375 c 0
 755.099609375 541.200195312 754.099609375 540.299804688 753.200195312 539.400390625 c 1
 768.400390625 529.5 782.700195312 518.200195312 795.900390625 505.299804688 c 0
 842.099609375 459.799804688 866.599609375 400.299804688 866.599609375 333.099609375 c 0
 866.599609375 120 673 12.099609375 493.099609375 2.099609375 c 0
 479.099609375 1.2998046875 465.599609375 0.900390625 452.400390625 0.900390625 c 2
 452.099609375 0.7001953125 l 1
EndSplineSet
EndChar

StartChar: four
Encoding: 52 52 31
Width: 998
Flags: HW
LayerCount: 2
Fore
SplineSet
697.299804688 0 m 1
 697.099609375 0 l 2
 655.200195312 0.099609375 621.299804688 34.2001953125 621.400390625 76.2001953125 c 2
 621.799804688 208.400390625 l 1
 155.700195312 210 l 2
 126.200195312 210 99.400390625 227.299804688 87 254.099609375 c 0
 74.599609375 280.900390625 78.900390625 312.400390625 97.900390625 335 c 2
 642 979.099609375 l 2
 662.599609375 1003.5 696.200195312 1012.40039062 726.200195312 1001.40039062 c 0
 756.200195312 990.400390625 776 961.799804688 775.900390625 929.900390625 c 2
 774.099609375 359.799804688 l 1
 842.299804688 359.599609375 l 2
 884.200195312 359.5 918.099609375 325.299804688 918 283.400390625 c 0
 917.900390625 241.5 883.900390625 207.700195312 842.099609375 207.700195312 c 2
 841.799804688 207.700195312 l 1
 773.599609375 207.900390625 l 1
 773.200195312 75.7998046875 l 2
 773.099609375 33.900390625 739.099609375 0.099609375 697.299804688 0.099609375 c 1
 697.299804688 0 l 1
319 361.299804688 m 1
 622.200195312 360.299804688 l 1
 623.299804688 721.700195312 l 1
 318.900390625 361.299804688 l 1
 319 361.299804688 l 1
EndSplineSet
EndChar

StartChar: five
Encoding: 53 53 32
Width: 988
Flags: HW
LayerCount: 2
Fore
SplineSet
436.5 -0.7001953125 m 1
 270.099609375 -0.7001953125 137.400390625 48.7998046875 128.900390625 52 c 0
 89.7001953125 66.900390625 70 110.799804688 85 150 c 0
 99.900390625 189.200195312 143.700195312 208.900390625 183 193.900390625 c 0
 185.5 193 448.900390625 95.900390625 662.5 197.799804688 c 0
 746.299804688 237.799804688 762.200195312 314.099609375 749.200195312 372.200195312 c 0
 734.200195312 439.099609375 672.599609375 517.5 548.5 517.900390625 c 2
 545.799804688 517.900390625 l 2
 362.5 517.900390625 231.099609375 450.200195312 229.799804688 449.5 c 0
 206.099609375 437.099609375 177.599609375 438 154.799804688 451.900390625 c 0
 132 465.799804688 118.099609375 490.700195312 118.400390625 517.400390625 c 2
 122.5 923.299804688 l 2
 122.900390625 964.799804688 156.599609375 998.299804688 198.200195312 998.5 c 2
 759.5 1000.5 l 1
 759.799804688 1000.5 l 2
 801.599609375 1000.5 835.599609375 966.700195312 835.700195312 924.799804688 c 0
 835.799804688 882.900390625 802 848.700195312 760 848.599609375 c 2
 273.599609375 846.799804688 l 1
 271.400390625 628.099609375 l 1
 339.5 649.200195312 434.5 669.700195312 545.799804688 669.700195312 c 2
 549.099609375 669.700195312 l 2
 749 669 868.099609375 536.400390625 897.5 405.400390625 c 0
 929.5 262.799804688 861.400390625 124.299804688 728 60.599609375 c 0
 630.799804688 14.2001953125 528.599609375 -0.900390625 436.700195312 -0.900390625 c 1
 436.5 -0.7001953125 l 1
EndSplineSet
EndChar

StartChar: six
Encoding: 54 54 33
Width: 998
Flags: HW
LayerCount: 2
Fore
SplineSet
525.799804688 0.599609375 m 1
 380.299804688 0.599609375 273.700195312 36.7001953125 200 110.900390625 c 0
 155.5 155.700195312 123.599609375 213.700195312 103.900390625 286.099609375 c 0
 103 288.900390625 102.200195312 291.700195312 101.700195312 294.599609375 c 0
 86.599609375 353.700195312 79.5 422.099609375 80.099609375 500.400390625 c 0
 82.7998046875 883.700195312 361.5 994.200195312 525.799804688 999 c 0
 736.299804688 1005.20019531 842.400390625 903.400390625 853.799804688 891.799804688 c 0
 883.099609375 861.799804688 882.5 813.700195312 852.5 784.400390625 c 0
 822.700195312 755.400390625 775.099609375 755.700195312 745.799804688 785 c 0
 741.5 789.099609375 673.700195312 851.400390625 530.299804688 847.200195312 c 0
 482.299804688 845.799804688 248.200195312 823.5 232.799804688 526.099609375 c 1
 292.400390625 572 389.099609375 621 525.900390625 617.299804688 c 0
 752.599609375 610.900390625 917.200195312 484.400390625 917.200195312 316.5 c 0
 917.200195312 163.700195312 814.400390625 0.5 526 0.5 c 1
 525.799804688 0.599609375 l 1
253.400390625 315.099609375 m 1
 265.900390625 274.099609375 284 241.900390625 307.799804688 218 c 0
 352.099609375 173.299804688 421.400390625 152.5 525.799804688 152.5 c 0
 630.200195312 152.5 765.200195312 181 765.200195312 316.599609375 c 0
 765.200195312 397.599609375 660.5 461.700195312 521.599609375 465.599609375 c 0
 338.400390625 471.200195312 265 348 253.5 315.099609375 c 2
 253.400390625 315.099609375 l 1
EndSplineSet
EndChar

StartChar: seven
Encoding: 55 55 34
Width: 1062
Flags: HW
LayerCount: 2
Fore
SplineSet
477.299804688 0.599609375 m 1
 471.200195312 0.599609375 465 1.2998046875 458.900390625 2.900390625 c 0
 418.599609375 13.099609375 393.799804688 53.2998046875 403.5 93.7998046875 c 0
 405.700195312 103.099609375 429.799804688 194.099609375 589.200195312 522.299804688 c 0
 663 674.400390625 721.799804688 780.900390625 764.200195312 852.299804688 c 1
 155.900390625 852.299804688 l 2
 113.900390625 852.299804688 80 886.299804688 80 928.200195312 c 0
 80 970.099609375 114 1004.09960938 155.900390625 1004.09960938 c 2
 903.799804688 1004.09960938 l 2
 932.900390625 1004.09960938 959.400390625 987.5 972.200195312 961.299804688 c 0
 984.900390625 935.099609375 981.5 904 963.400390625 881.099609375 c 0
 962.700195312 880.200195312 878.700195312 770.900390625 725.700195312 455.900390625 c 0
 575.200195312 146 551.799804688 61 550.900390625 57.5 c 0
 541.900390625 23.5 511 0.599609375 477.200195312 0.599609375 c 1
 477.299804688 0.599609375 l 1
EndSplineSet
EndChar

StartChar: eight
Encoding: 56 56 35
Width: 974
Flags: HW
LayerCount: 2
Fore
SplineSet
756.299804688 546.400390625 m 1
 756.400390625 546.299804688 l 2
 840.700195312 488.299804688 891.799804688 403 892 303 c 0
 892.099609375 229.400390625 864.799804688 163 812.900390625 111 c 0
 741 39.099609375 628 1 486.099609375 1 c 0
 309.299804688 1 211.400390625 65.099609375 160.299804688 118.900390625 c 0
 104.700195312 177.400390625 76.2998046875 252.799804688 80.400390625 331.200195312 c 0
 85.099609375 420.200195312 136.599609375 498.299804688 215.599609375 552 c 1
 202.700195312 561.900390625 191.700195312 572 182.5 581.700195312 c 0
 136.700195312 630.299804688 113.400390625 691.900390625 117.099609375 755.200195312 c 0
 125.200195312 895.900390625 281.400390625 1005.29980469 473.299804688 1005.29980469 c 0
 474.299804688 1005.29980469 475.299804688 1005.29980469 476.400390625 1005.29980469 c 0
 699.099609375 1003.90039062 854.900390625 891.400390625 855.299804688 731.5 c 0
 855.400390625 671.700195312 832.599609375 617.200195312 789.400390625 573.900390625 c 0
 779.400390625 563.900390625 768.200195312 554.900390625 756.299804688 546.400390625 c 1
473.099609375 853.5 m 0
 350.099609375 853.5 271.200195312 791.400390625 268.599609375 746.5 c 0
 267.400390625 725 275.799804688 704.099609375 292.900390625 686 c 0
 313.700195312 663.900390625 366.5 626.900390625 486 626.900390625 c 0
 576 626.900390625 647.400390625 646.700195312 681.799804688 681.200195312 c 0
 696.299804688 695.799804688 703.299804688 712.099609375 703.299804688 731.200195312 c 0
 703.099609375 809.700195312 585.700195312 852.799804688 475.299804688 853.5 c 0
 474.599609375 853.5 473.799804688 853.5 473.099609375 853.5 c 0
705.299804688 218.400390625 m 0
 728.400390625 241.599609375 740 269.900390625 740 302.799804688 c 0
 739.799804688 414.599609375 606.099609375 474.099609375 474.099609375 475 c 0
 473.299804688 475 472.400390625 475 471.599609375 475 c 0
 332.900390625 475 235.900390625 396.900390625 232.099609375 323.400390625 c 0
 230.200195312 287 243.799804688 251.5 270.400390625 223.5 c 0
 300.900390625 191.299804688 363.200195312 152.900390625 486 152.900390625 c 0
 585.299804688 152.900390625 663.200195312 176.200195312 705.299804688 218.400390625 c 0
EndSplineSet
EndChar

StartChar: nine
Encoding: 57 57 36
Width: 998
Flags: HW
LayerCount: 2
Fore
SplineSet
465.200195312 0 m 2
 259 0 155.799804688 95.2998046875 144.599609375 106.200195312 c 0
 114.599609375 135.599609375 114.099609375 183.599609375 143.5 213.599609375 c 0
 172.599609375 243.299804688 220.200195312 244.099609375 250.099609375 215.400390625 c 0
 254.400390625 211.5 322.599609375 151.900390625 465.200195312 151.900390625 c 0
 466.5 151.900390625 467.700195312 151.900390625 469.099609375 151.900390625 c 0
 602.299804688 152.900390625 754.900390625 191.099609375 765.799804688 474.099609375 c 1
 706.200195312 428 609.799804688 378.599609375 471.900390625 382.400390625 c 0
 244.900390625 388.799804688 80.099609375 515.5 80.099609375 683.599609375 c 0
 80.099609375 836.599609375 183 1000 471.900390625 1000 c 0
 617.599609375 1000 724.400390625 963.900390625 798.200195312 889.5 c 0
 842.900390625 844.5 874.900390625 786.099609375 894.599609375 713.200195312 c 0
 895.299804688 710.900390625 895.900390625 708.599609375 896.400390625 706.299804688 c 0
 911.599609375 646.900390625 918.799804688 578.200195312 918.299804688 499.400390625 c 0
 915.299804688 89.400390625 673 1.5 470.299804688 0 c 0
 468.599609375 0 466.900390625 0 465.299804688 0 c 2
 465.200195312 0 l 2
471.799804688 848.099609375 m 1
 362.400390625 848.099609375 231.900390625 819.599609375 231.900390625 683.599609375 c 0
 231.900390625 602.400390625 336.900390625 538.099609375 476.099609375 534.200195312 c 0
 479.900390625 534.099609375 483.599609375 534 487.200195312 534 c 0
 662.799804688 534 733.599609375 652.900390625 744.799804688 685.099609375 c 0
 732.200195312 726.200195312 714.099609375 758.400390625 690.299804688 782.400390625 c 0
 645.900390625 827.200195312 576.400390625 848 471.799804688 848 c 1
 471.799804688 848.099609375 l 1
EndSplineSet
EndChar

StartChar: parenleft
Encoding: 40 40 37
Width: 668
Flags: HW
LayerCount: 2
Fore
SplineSet
497.299804688 -167.299804688 m 2
 483.599609375 -167.299804688 469.799804688 -163.599609375 457.299804688 -155.799804688 c 0
 445.200195312 -148.200195312 160 35.400390625 160 496 c 0
 160 911.5 438 1140.90039062 449.799804688 1150.5 c 0
 482.5 1176.79980469 530.200195312 1171.79980469 556.599609375 1139.20019531 c 0
 582.900390625 1106.70019531 577.900390625 1059 545.5 1032.59960938 c 1
 545.5 1032.59960938 l 1
 536 1024.79980469 311.900390625 836.900390625 311.900390625 496.200195312 c 0
 311.900390625 123.400390625 529 -21.2001953125 538.299804688 -27.099609375 c 0
 573.400390625 -49.7001953125 583.799804688 -96.599609375 561.400390625 -131.799804688 c 0
 546.900390625 -154.599609375 522.400390625 -167.099609375 497.299804688 -167.099609375 c 2
 497.299804688 -167.299804688 l 2
EndSplineSet
EndChar

StartChar: parenright
Encoding: 41 41 38
Width: 654
Flags: HW
LayerCount: 2
Fore
SplineSet
156 -160.900390625 m 1
 130.700195312 -160.900390625 105.900390625 -148.299804688 91.5 -125.200195312 c 0
 69.2998046875 -89.599609375 80.099609375 -42.7998046875 115.599609375 -20.5 c 0
 124.400390625 -14.7998046875 341.5 129.700195312 341.5 502.5 c 0
 341.5 843.200195312 117.400390625 1031.09960938 107.900390625 1038.90039062 c 0
 75.599609375 1065.5 70.7001953125 1113.20019531 97.099609375 1145.70019531 c 0
 123.5 1178.09960938 171.099609375 1183.20019531 203.599609375 1156.90039062 c 0
 215.400390625 1147.29980469 493.400390625 917.900390625 493.400390625 502.5 c 0
 493.400390625 41.7998046875 208.299804688 -141.799804688 196.099609375 -149.299804688 c 0
 183.599609375 -157.099609375 169.599609375 -160.900390625 155.900390625 -160.900390625 c 1
 156 -160.900390625 l 1
EndSplineSet
EndChar

StartChar: plus
Encoding: 43 43 39
Width: 1100
Flags: HW
LayerCount: 2
Fore
SplineSet
857.200195312 575.900390625 m 2
 899.099609375 575.900390625 933.099609375 541.900390625 933.099609375 500 c 0
 933.099609375 458.099609375 899.200195312 424.099609375 857.200195312 424.099609375 c 2
 622.5 424.099609375 l 1
 622.5 189.5 l 2
 622.5 147.599609375 588.5 113.599609375 546.599609375 113.599609375 c 0
 504.700195312 113.599609375 470.700195312 147.599609375 470.700195312 189.5 c 2
 470.700195312 424.099609375 l 1
 236 424.099609375 l 2
 194.099609375 424.099609375 160.099609375 458.099609375 160.099609375 500 c 0
 160.099609375 541.900390625 194 575.900390625 236 575.900390625 c 2
 470.700195312 575.900390625 l 1
 470.700195312 810.599609375 l 2
 470.700195312 852.5 504.700195312 886.5 546.599609375 886.5 c 0
 588.5 886.5 622.5 852.5 622.5 810.599609375 c 2
 622.5 575.900390625 l 1
 857.200195312 575.900390625 l 2
EndSplineSet
EndChar

StartChar: hyphen
Encoding: 45 45 40
Width: 1092
Flags: HW
LayerCount: 2
Fore
SplineSet
855.400390625 455.5 m 2
 234.200195312 455.5 l 2
 192.200195312 455.5 158.299804688 489.5 158.299804688 531.400390625 c 0
 158.299804688 573.299804688 192.299804688 607.299804688 234.200195312 607.299804688 c 2
 855.400390625 607.299804688 l 2
 897.400390625 607.299804688 931.299804688 573.299804688 931.299804688 531.400390625 c 0
 931.299804688 489.5 897.299804688 455.5 855.400390625 455.5 c 2
EndSplineSet
EndChar

StartChar: slash
Encoding: 47 47 41
Width: 1121
Flags: HW
LayerCount: 2
Fore
SplineSet
235.900390625 -176.900390625 m 0
 223.700195312 -176.900390625 211.400390625 -174 199.900390625 -167.799804688 c 0
 163 -147.900390625 149.200195312 -101.799804688 169.099609375 -64.900390625 c 2
 817.599609375 1137 l 2
 837.5 1173.90039062 883.599609375 1187.79980469 920.5 1167.79980469 c 0
 957.400390625 1147.90039062 971.200195312 1101.79980469 951.299804688 1064.90039062 c 2
 302.799804688 -137 l 2
 289.099609375 -162.5 262.900390625 -176.900390625 235.900390625 -176.900390625 c 0
EndSplineSet
EndChar

StartChar: mu
Encoding: 181 181 42
Width: 894
Flags: HW
LayerCount: 2
Fore
SplineSet
736 776 m 1
 736 775.799804688 l 1
 777.900390625 775.799804688 811.900390625 741.799804688 811.900390625 699.900390625 c 2
 811.900390625 76.900390625 l 2
 811.900390625 35 778 1 736 1 c 0
 700 1 670 26.099609375 662.200195312 59.7998046875 c 1
 607.799804688 23.7001953125 537 1 446 1 c 0
 361.799804688 1 289.5 21.7998046875 231.900390625 60.2001953125 c 1
 231.900390625 -110.400390625 l 2
 231.900390625 -152.299804688 197.900390625 -186.299804688 156 -186.299804688 c 0
 114.099609375 -186.299804688 80.099609375 -152.299804688 80.099609375 -110.400390625 c 2
 80.099609375 700 l 2
 80.099609375 741.900390625 114.099609375 775.900390625 156 775.900390625 c 0
 197.900390625 775.900390625 231.900390625 741.900390625 231.900390625 700 c 2
 231.900390625 389.700195312 l 2
 231.900390625 232.700195312 303.900390625 153 446 153 c 0
 632.299804688 153 660.099609375 287.200195312 660.099609375 367.099609375 c 2
 660.099609375 700.099609375 l 2
 660.099609375 742 694 776 736 776 c 1
EndSplineSet
EndChar

StartChar: p
Encoding: 112 112 43
Width: 894
Flags: HW
LayerCount: 2
Fore
SplineSet
812.5 386.400390625 m 1
 812.5 386.5 l 1
 812.5 383 812 379.700195312 811.5 376.299804688 c 0
 811.900390625 372.900390625 812.5 369.599609375 812.5 366.099609375 c 0
 812.5 197.299804688 716.599609375 0.099609375 446.5 0.099609375 c 0
 362.299804688 0.099609375 290 20.900390625 232.400390625 59.2998046875 c 1
 232.400390625 -111.299804688 l 2
 232.400390625 -153.200195312 198.400390625 -187.200195312 156.5 -187.200195312 c 0
 114.599609375 -187.200195312 80.599609375 -153.200195312 80.599609375 -111.299804688 c 2
 80.599609375 699.099609375 l 2
 80.599609375 741 114.5 775 156.5 775 c 0
 192.5 775 222.5 749.900390625 230.299804688 716.200195312 c 1
 284.700195312 752.299804688 355.5 775 446.5 775 c 0
 672.299804688 775 812.5 626.099609375 812.5 386.400390625 c 1
446.5 152 m 1
 446.5 151.900390625 l 1
 632.799804688 151.900390625 660.599609375 286.099609375 660.599609375 366 c 0
 660.599609375 369.5 661.099609375 372.799804688 661.599609375 376.200195312 c 0
 661.200195312 379.599609375 660.599609375 382.900390625 660.599609375 386.400390625 c 0
 660.599609375 543.400390625 588.599609375 623.099609375 446.5 623.099609375 c 0
 260.200195312 623.099609375 232.400390625 488.900390625 232.400390625 409 c 2
 232.400390625 388.700195312 l 2
 232.400390625 231.700195312 304.400390625 152 446.5 152 c 1
EndSplineSet
EndChar

StartChar: n
Encoding: 110 110 44
Width: 894
Flags: HW
LayerCount: 2
Fore
SplineSet
447 775.099609375 m 1
 446.900390625 775.200195312 l 1
 672.700195312 775.200195312 812.900390625 626.299804688 812.900390625 386.599609375 c 2
 812.900390625 76.2998046875 l 2
 812.900390625 34.400390625 778.900390625 0.400390625 737 0.400390625 c 0
 695.099609375 0.400390625 661.099609375 34.400390625 661.099609375 76.2998046875 c 2
 661.099609375 386.599609375 l 2
 661.099609375 543.599609375 589.099609375 623.299804688 447 623.299804688 c 0
 260.700195312 623.299804688 232.900390625 489.099609375 232.900390625 409.200195312 c 2
 232.900390625 76.2001953125 l 2
 232.900390625 34.2998046875 198.900390625 0.2998046875 157 0.2998046875 c 0
 115.099609375 0.2998046875 81.099609375 34.2998046875 81.099609375 76.2001953125 c 2
 81.099609375 699.200195312 l 2
 81.099609375 741.099609375 115 775.099609375 157 775.099609375 c 0
 193 775.099609375 223 750 230.799804688 716.299804688 c 1
 285.200195312 752.400390625 356 775.099609375 447 775.099609375 c 1
EndSplineSet
EndChar

StartChar: equal
Encoding: 61 61 45
Width: 1098
Flags: HW
LayerCount: 2
Fore
SplineSet
857.099609375 247.599609375 m 2
 235.900390625 247.599609375 l 2
 193.900390625 247.599609375 160 281.599609375 160 323.5 c 0
 160 365.400390625 194 399.400390625 235.900390625 399.400390625 c 2
 857.099609375 399.400390625 l 2
 899.099609375 399.400390625 933 365.400390625 933 323.5 c 0
 933 281.599609375 899 247.599609375 857.099609375 247.599609375 c 2
857.099609375 600.599609375 m 2
 235.900390625 600.599609375 l 2
 193.900390625 600.599609375 160 634.599609375 160 676.5 c 0
 160 718.400390625 194 752.400390625 235.900390625 752.400390625 c 2
 857.099609375 752.400390625 l 2
 899.099609375 752.400390625 933 718.400390625 933 676.5 c 0
 933 634.599609375 899 600.599609375 857.099609375 600.599609375 c 2
EndSplineSet
EndChar

StartChar: period
Encoding: 46 46 46
Width: 472
Flags: HW
LayerCount: 2
Fore
SplineSet
160 77.099609375 m 0
 160 119.681640625 194.518554688 154.200195312 237.099609375 154.200195312 c 0
 279.681640625 154.200195312 314.200195312 119.681640625 314.200195312 77.099609375 c 0
 314.200195312 34.5185546875 279.681640625 0 237.099609375 0 c 0
 194.518554688 0 160 34.5185546875 160 77.099609375 c 0
EndSplineSet
EndChar

StartChar: comma
Encoding: 44 44 47
Width: 514
Flags: HW
LayerCount: 2
Fore
SplineSet
236 -155.799804688 m 1
 228.400390625 -155.799804688 220.700195312 -154.700195312 213 -152.200195312 c 0
 173 -139.5 150.900390625 -96.7998046875 163.5 -56.900390625 c 2
 204.299804688 71.7998046875 l 2
 217 111.799804688 259.700195312 134 299.599609375 121.299804688 c 0
 339.599609375 108.599609375 361.700195312 65.900390625 349.099609375 26 c 2
 308.299804688 -102.700195312 l 2
 298 -135.099609375 268.099609375 -155.700195312 235.900390625 -155.700195312 c 1
 236 -155.799804688 l 1
EndSplineSet
EndChar

StartChar: colon
Encoding: 58 58 48
Width: 792
Flags: HW
LayerCount: 2
Fore
SplineSet
320 154.599609375 m 0
 320 196.518554688 353.981445312 230.5 395.900390625 230.5 c 0
 437.818359375 230.5 471.799804688 196.518554688 471.799804688 154.599609375 c 0
 471.799804688 112.681640625 437.818359375 78.7001953125 395.900390625 78.7001953125 c 0
 353.981445312 78.7001953125 320 112.681640625 320 154.599609375 c 0
320 846.599609375 m 0
 320 888.518554688 353.981445312 922.5 395.900390625 922.5 c 0
 437.818359375 922.5 471.799804688 888.518554688 471.799804688 846.599609375 c 0
 471.799804688 804.681640625 437.818359375 770.700195312 395.900390625 770.700195312 c 0
 353.981445312 770.700195312 320 804.681640625 320 846.599609375 c 0
EndSplineSet
EndChar

StartChar: semicolon
Encoding: 59 59 49
Width: 832
Flags: HW
LayerCount: 2
Fore
SplineSet
360.900390625 846.599609375 m 0
 360.900390625 888.518554688 394.881835938 922.5 436.799804688 922.5 c 0
 478.71875 922.5 512.700195312 888.518554688 512.700195312 846.599609375 c 0
 512.700195312 804.681640625 478.71875 770.700195312 436.799804688 770.700195312 c 0
 394.881835938 770.700195312 360.900390625 804.681640625 360.900390625 846.599609375 c 0
396 -50.099609375 m 1
 388.400390625 -50.099609375 380.700195312 -49 373 -46.5 c 0
 333 -33.7998046875 310.900390625 8.900390625 323.5 48.7998046875 c 2
 364.299804688 177.5 l 2
 377 217.5 419.700195312 239.700195312 459.599609375 227 c 0
 499.599609375 214.299804688 521.700195312 171.599609375 509.099609375 131.700195312 c 2
 468.299804688 3 l 2
 458 -29.400390625 428.099609375 -50 395.900390625 -50 c 1
 396 -50.099609375 l 1
EndSplineSet
EndChar

StartChar: k
Encoding: 107 107 50
Width: 792
Flags: HW
LayerCount: 2
Fore
SplineSet
700.400390625 123.900390625 m 1
 700.400390625 123.799804688 l 2
 726.5 90.900390625 721 43.2001953125 688.099609375 17.099609375 c 0
 674.200195312 6.099609375 657.5 0.7001953125 641 0.7001953125 c 0
 618.599609375 0.7001953125 596.400390625 10.599609375 581.400390625 29.5 c 2
 323.200195312 355.200195312 l 1
 231.900390625 276.599609375 l 1
 231.900390625 76.599609375 l 2
 231.900390625 34.7001953125 197.900390625 0.7001953125 156 0.7001953125 c 0
 114.099609375 0.7001953125 80.099609375 34.7001953125 80.099609375 76.599609375 c 2
 80.099609375 923.299804688 l 2
 80.099609375 965.200195312 114.099609375 999.200195312 156 999.200195312 c 0
 197.900390625 999.200195312 231.900390625 965.200195312 231.900390625 923.299804688 c 2
 231.900390625 477 l 1
 587.400390625 783 l 2
 619.099609375 810.400390625 667.099609375 806.799804688 694.5 775 c 0
 721.900390625 743.200195312 718.299804688 695.299804688 686.5 667.900390625 c 2
 438.400390625 454.400390625 l 1
 700.400390625 123.900390625 l 1
EndSplineSet
EndChar

StartChar: numbersign
Encoding: 35 35 51
Width: 1102
Flags: HW
LayerCount: 2
Fore
SplineSet
859.700195312 341.799804688 m 2
 901.599609375 341.799804688 935.599609375 307.799804688 935.599609375 265.900390625 c 0
 935.599609375 224 901.700195312 190 859.700195312 190 c 2
 804.200195312 190 l 1
 804.200195312 76.7998046875 l 2
 804.200195312 34.900390625 770.200195312 0.900390625 728.299804688 0.900390625 c 0
 686.400390625 0.900390625 652.400390625 34.900390625 652.400390625 76.7998046875 c 2
 652.400390625 190 l 1
 451.299804688 190 l 1
 451.299804688 76.7998046875 l 2
 451.299804688 34.900390625 417.299804688 0.900390625 375.400390625 0.900390625 c 0
 333.5 0.900390625 299.5 34.900390625 299.5 76.7998046875 c 2
 299.5 190 l 1
 232.599609375 190 l 2
 190.700195312 190 156.700195312 224 156.700195312 265.900390625 c 0
 156.700195312 307.799804688 190.599609375 341.799804688 232.599609375 341.799804688 c 2
 299.5 341.799804688 l 1
 299.5 673.700195312 l 1
 232.599609375 673.700195312 l 2
 190.700195312 673.700195312 156.700195312 707.700195312 156.700195312 749.599609375 c 0
 156.700195312 791.5 190.599609375 825.5 232.599609375 825.5 c 2
 299.5 825.5 l 1
 299.5 923.200195312 l 2
 299.5 965.099609375 333.5 999.099609375 375.400390625 999.099609375 c 0
 417.299804688 999.099609375 451.299804688 965.099609375 451.299804688 923.200195312 c 2
 451.299804688 825.5 l 1
 652.400390625 825.5 l 1
 652.400390625 923.200195312 l 2
 652.400390625 965.099609375 686.400390625 999.099609375 728.299804688 999.099609375 c 0
 770.200195312 999.099609375 804.200195312 965.099609375 804.200195312 923.200195312 c 2
 804.200195312 825.5 l 1
 859.700195312 825.5 l 2
 901.599609375 825.5 935.599609375 791.5 935.599609375 749.599609375 c 0
 935.599609375 707.700195312 901.700195312 673.700195312 859.700195312 673.700195312 c 2
 804.200195312 673.700195312 l 1
 804.200195312 341.799804688 l 1
 859.700195312 341.799804688 l 2
451.200195312 341.799804688 m 1
 652.299804688 341.799804688 l 1
 652.299804688 673.700195312 l 1
 451.200195312 673.700195312 l 1
 451.200195312 341.799804688 l 1
EndSplineSet
EndChar

StartChar: quotedbl
Encoding: 34 34 52
Width: 822
Flags: HW
LayerCount: 2
Fore
SplineSet
243.799804688 601.299804688 m 2
 202 601.299804688 168 635.099609375 167.900390625 676.900390625 c 2
 166.900390625 934.299804688 l 2
 166.700195312 976.200195312 200.599609375 1010.40039062 242.5 1010.59960938 c 2
 242.799804688 1010.59960938 l 2
 284.599609375 1010.59960938 318.599609375 976.799804688 318.700195312 935 c 2
 319.700195312 677.599609375 l 2
 319.900390625 635.700195312 286 601.5 244.099609375 601.299804688 c 2
 243.799804688 601.299804688 l 2
590.900390625 601.299804688 m 1
 549.099609375 601.299804688 515.099609375 635.099609375 515 676.900390625 c 2
 514 934.299804688 l 2
 513.799804688 976.200195312 547.700195312 1010.40039062 589.599609375 1010.59960938 c 2
 589.900390625 1010.59960938 l 2
 631.700195312 1010.59960938 665.700195312 976.799804688 665.799804688 935 c 2
 666.799804688 677.599609375 l 2
 667 635.700195312 633.099609375 601.5 591.200195312 601.299804688 c 2
 590.900390625 601.299804688 l 1
EndSplineSet
EndChar

StartChar: quotesingle
Encoding: 39 39 53
Width: 724
Flags: HW
LayerCount: 2
Fore
SplineSet
326.400390625 589.599609375 m 1
 318.799804688 589.599609375 311.099609375 590.700195312 303.400390625 593.200195312 c 0
 263.400390625 605.900390625 241.299804688 648.599609375 254 688.5 c 2
 335.599609375 945.900390625 l 2
 348.200195312 985.900390625 391 1008.09960938 430.900390625 995.400390625 c 0
 470.900390625 982.700195312 493 940 480.299804688 900.099609375 c 2
 398.700195312 642.700195312 l 2
 388.5 610.400390625 358.599609375 589.700195312 326.299804688 589.700195312 c 1
 326.400390625 589.599609375 l 1
EndSplineSet
EndChar

StartChar: ampersand
Encoding: 38 38 54
Width: 996
Flags: HW
LayerCount: 2
Fore
SplineSet
838.900390625 0.7001953125 m 1
 819.400390625 0.7001953125 799.900390625 8.2001953125 785.099609375 23 c 2
 667.299804688 141.299804688 l 2
 655.799804688 130.099609375 644.599609375 119.200195312 634 108.900390625 c 0
 565.200195312 36.099609375 479.200195312 0.7001953125 370.900390625 0.7001953125 c 0
 234.200195312 0.7001953125 81.900390625 111.200195312 81.900390625 269.700195312 c 0
 81.900390625 395.700195312 179.900390625 484.5 264.5 541.700195312 c 1
 211.900390625 595.099609375 171.200195312 649.5 162.799804688 728.200195312 c 0
 155.900390625 792.799804688 180.5 863.5 228.700195312 917.099609375 c 0
 276.299804688 970.099609375 339.900390625 999.299804688 407.799804688 999.299804688 c 0
 533.299804688 999.299804688 667.599609375 908.400390625 669.400390625 739.900390625 c 0
 670.599609375 628.900390625 584 559.099609375 511.099609375 513.299804688 c 1
 669.099609375 354.799804688 l 2
 695.200195312 380 720.5 404.299804688 740.400390625 423.099609375 c 0
 785.299804688 465.599609375 831.599609375 509.599609375 884.799804688 460.799804688 c 0
 910.599609375 437.099609375 921.299804688 391.799804688 890.5 354.400390625 c 0
 885 347.799804688 878.700195312 342.299804688 871.700195312 338 c 0
 855.400390625 323.099609375 819 288.299804688 776.299804688 247.200195312 c 1
 892.700195312 130.400390625 l 2
 922.299804688 100.700195312 922.200195312 52.599609375 892.5 23 c 0
 877.700195312 8.2001953125 858.299804688 0.7998046875 838.900390625 0.7998046875 c 1
 838.900390625 0.7001953125 l 1
376.400390625 433.200195312 m 0
 312.400390625 393.599609375 233.799804688 335.5 233.799804688 269.700195312 c 0
 233.799804688 198.200195312 315 152.599609375 370.900390625 152.599609375 c 0
 437.299804688 152.599609375 484.599609375 171.5 524.299804688 214 c 0
 525.099609375 214.799804688 525.900390625 215.599609375 526.700195312 216.400390625 c 2
 526.700195312 216.400390625 539.799804688 229.200195312 560 248.900390625 c 1
 376.400390625 433.200195312 l 0
773.299804688 450.900390625 m 1
 773.299804688 450.900390625 l 1
 773.299804688 450.900390625 l 1
407.799804688 847.400390625 m 0
 376.799804688 847.400390625 354.700195312 830.099609375 341.700195312 815.599609375 c 0
 319.799804688 791.200195312 311.900390625 762.299804688 313.799804688 744.400390625 c 0
 318.099609375 704.700195312 344.700195312 674.599609375 398.700195312 622.900390625 c 1
 448.799804688 652.200195312 517.900390625 694.5 517.5 738.299804688 c 0
 516.599609375 824.400390625 448.099609375 847.400390625 407.799804688 847.400390625 c 0
EndSplineSet
EndChar
